PathFileType	4	(X/Y/Z)	ScaleMarkers.trc																																																																																								
DataRate	CameraRate	NumFrames	NumMarkers	Units	OrigDataRate	OrigDataStartFrame	OrigNumFrames																																																																																				
100	100	4	30	mm	100	63 100																																																																																					
Frame#	Time	Thumb_MCP_L			Thumb_PIP_L			Thumb_DIP_L			Thumb_TIP_L			Index_MCP_L			Index_PIP_L			Index_DIP_L			Index_TIP_L			Middle_MCP_L			Middle_PIP_L			Middle_DIP_L			Middle_TIP_L			Ring_MCP_L			Ring_PIP_L			Ring_DIP_L			Ring_TIP_L			Little_MCP_L			Little_PIP_L			Little_DIP_L			Little_TIP_L			Wrist_L			Elbow_L			Point_W1_L			Point_E1_L			Shoulder_L			Point_F1_L			Point_F2_L			Point_F3_L			Point_F4_L			Point_F5_L		
		X1	Y1	Z1	X2	Y2	Z2	X3	Y3	Z3	X4	Y4	Z4	X5	Y5	Z5	X6	Y6	Z6	X7	Y7	Z7	X8	Y8	Z8	X9	Y9	Z9	X10	Y10	Z10	X11	Y11	Z11	X12	Y12	Z12	X13	Y13	Z13	X14	Y14	Z14	X15	Y15	Z15	X16	Y16	Z16	X17	Y17	Z17	X18	Y18	Z18	X19	Y19	Z19	X20	Y20	Z20	X21	Y21	Z21	X22	Y22	Z22	X23	Y23	Z23	X24	Y24	Z24	X25	Y25	Z25	X26	Y26	Z26	X27	Y27	Z27	X28	Y28	Z28	X29	Y29	Z29	X30	Y30	Z30
63	14.36348617	192.6280394	-111.2664069	-164.4757182	198.4515744	-102.811587	-152.2047084	207.5165021	-112.7770653	-148.3978452	215.9573744	-125.0801371	-146.8545517	197.9987459	-113.303197	-183.2752606	220.1999032	-120.4301047	-164.3946518	211.9299238	-137.1581644	-157.1969143	203.9031875	-152.0971046	-151.1636091	193.7908513	-117.0254967	-184.0350137	221.6474015	-131.0861483	-176.934339	212.1079502	-147.5055103	-163.956535	200.060684	-159.7584934	-153.7229947	190.8148261	-121.6057692	-189.8081529	221.0035285	-130.7529068	-184.4173096	212.0070839	-146.8454876	-172.4157134	201.0907786	-160.2115057	-162.3086	188.381053	-121.8884785	-190.0357993	210.8681651	-126.1991164	-192.229849	210.97913	-137.9991024	-186.7824836	195.3619587	-146.4167306	-179.9790923	157.7290952	-102.1605313	-163.266191	-38.61810658	-127.8145428	-135.1762371	167.6738771	-85.2570937	-159.3431522	-34.83494768	-142.6125535	-122.2639882	0	0	0	206.4527306	-103.2928628	-176.5278949	206.8791971	-123.9079491	-197.7213584	191.9914796	-128.7222735	-200.157866	190.1602985	-133.3187887	-206.0077632	185.0516673	-130.1733001	-207.9316919
64	14.37348617	192.6388707	-111.2182751	-164.4507939	198.46754	-102.7686667	-152.1776786	207.5132201	-112.7696618	-148.4161296	215.9557673	-125.0710554	-146.8672112	198.0015403	-113.2484065	-183.2539793	220.2212975	-120.4274677	-164.4197457	211.9343103	-137.1501498	-157.2308545	203.9003673	-152.0851163	-151.1972556	193.7929058	-116.9698534	-184.0129624	221.6277519	-131.0606522	-176.8948978	212.1093004	-147.4901194	-163.9152659	200.0585092	-159.7416871	-153.6840087	190.8136452	-121.5474663	-189.7863203	220.997817	-130.8323273	-184.6171743	211.9514906	-146.903301	-172.6218628	201.0191944	-160.2423877	-162.4952582	188.3797147	-121.8297658	-190.0127873	210.8722341	-126.1119328	-192.1903269	211.0806594	-137.9176855	-186.7513708	195.4520143	-146.3205947	-179.958612	157.7414744	-102.107343	-163.2191917	-38.65706201	-127.6192506	-135.3475467	167.6897356	-85.20669797	-159.2947908	-34.90197773	-142.4359869	-122.4493428	0	0	0	206.4650295	-103.2468334	-176.5049381	206.8426639	-123.8506549	-197.7256454	191.9951345	-128.666136	-200.1363879	190.0067407	-133.2070413	-206.0162676	185.0667331	-130.1305206	-207.904531
65	14.38348617	192.643692	-111.2187598	-164.5289164	198.4521062	-102.7788163	-152.2415307	207.507315	-112.7593459	-148.4455831	215.9534611	-125.0572659	-146.8888156	198.0356749	-113.2756334	-183.3210744	220.209369	-120.4694326	-164.4371868	211.9468454	-137.1939956	-157.2240167	203.9109172	-152.1270719	-151.1885435	193.8271009	-116.9966639	-184.0824775	221.6576225	-131.0752514	-176.9123342	212.1429565	-147.4994596	-163.9222219	200.0834344	-159.7444018	-153.6941599	190.8556473	-121.580429	-189.8552628	221.0159113	-130.8645858	-184.5308909	211.9974482	-146.9437105	-172.5250143	201.0486088	-160.2785427	-162.4103554	188.4219925	-121.8622385	-190.0853058	210.9333426	-125.9648762	-192.3990992	211.1137822	-137.7817642	-186.9810348	195.4714624	-146.1608424	-180.190794	157.7472632	-102.095872	-163.3630969	-38.60189692	-127.733429	-135.2555545	167.694634	-85.19389158	-159.4425437	-34.8218941	-142.5391843	-122.3520212	0	0	0	206.484468	-103.2360389	-176.5569979	206.8997673	-123.8867645	-197.7720196	192.0516825	-128.7085823	-200.1972627	190.122054	-133.2719398	-206.0638363	185.072742	-130.1148174	-207.9902421
66	14.39348617	192.6427406	-111.2406503	-164.5525133	198.4364747	-102.7864045	-152.2678441	207.4960219	-112.7600117	-148.4622603	215.9438816	-125.0556057	-146.9032306	198.0324848	-113.2970866	-183.3462816	220.2013304	-120.4681141	-164.4472913	211.9460139	-137.1929306	-157.2272677	203.9099378	-152.125908	-151.1921022	193.824459	-117.0190211	-184.1068352	221.6725362	-131.1049034	-177.0001771	212.0868154	-147.4943501	-164.0170197	200.0275653	-159.7335003	-153.783002	190.852798	-121.603091	-189.8792449	220.9944178	-130.8807715	-184.40714	212.0511696	-146.983881	-172.3765599	201.0967414	-160.3190211	-162.2682658	188.4191834	-121.8854281	-190.1086287	210.9286966	-125.9920996	-192.4097035	211.0725734	-137.806041	-186.9790417	195.4378958	-146.1945299	-180.1856187	157.7453675	-102.1259818	-163.3814548	-38.60631715	-127.7259627	-135.2613769	167.6909148	-85.22157252	-159.4623984	-34.82783196	-142.5324368	-122.3582415	0	0	0	206.4842406	-103.2549541	-176.5758353	206.9086294	-123.911703	-197.7873182	192.0192729	-128.719658	-200.2334563	190.198073	-133.3292779	-206.0674876	185.0735396	-130.1339469	-208.0114511
